<?xml version="1.0" encoding="UTF-8"?>
<!DOCTYPE svg PUBLIC "-//W3C//DTD SVG 1.1//EN" "http://www.w3.org/Graphics/SVG/1.1/DTD/svg11.dtd">
<!-- Creator: CorelDRAW 2020 (64-Bit) -->
<svg xmlns="http://www.w3.org/2000/svg" xml:space="preserve" width="7.62mm" height="7.62mm" version="1.1" style="shape-rendering:geometricPrecision; text-rendering:geometricPrecision; image-rendering:optimizeQuality; fill-rule:evenodd; clip-rule:evenodd"
viewBox="0 0 762 762"
 xmlns:xlink="http://www.w3.org/1999/xlink"
 xmlns:xodm="http://www.corel.com/coreldraw/odm/2003">
 <defs>
  <style type="text/css">
   <![CDATA[
    .str0 {stroke:#2B2A29;stroke-width:20;stroke-miterlimit:22.9256}
    .fil3 {fill:none}
    .fil9 {fill:#FDFCFC}
    .fil2 {fill:black}
    .fil8 {fill:#8C5B23}
    .fil6 {fill:#E8E6BF}
    .fil0 {fill:#F7C028}
    .fil5 {fill:#F7F2EA}
    .fil7 {fill:#F7F3CE}
    .fil1 {fill:#F7F5EF}
    .fil4 {fill:#FFE9D9}
   ]]>
  </style>
 </defs>
 <g id="Слой_x0020_1">
  <metadata id="CorelCorpID_0Corel-Layer"/>
  <path class="fil0" d="M392.85 374.73c0,-1.63 -2.62,-2.95 -5.85,-2.95 -3.23,0 -5.84,1.32 -5.84,2.95 0,1.63 2.61,2.95 5.84,2.95 3.23,0 5.85,-1.32 5.85,-2.95z"/>
  <path class="fil1" d="M392.85 374.73c0,-1.63 -2.62,-2.95 -5.85,-2.95 -3.23,0 -5.84,1.32 -5.84,2.95 0,1.63 2.61,2.95 5.84,2.95 3.23,0 5.85,-1.32 5.85,-2.95z"/>
  <path class="fil1" d="M438.25 370.69c0,1.63 2.62,2.95 5.85,2.95 3.23,0 5.85,-1.32 5.85,-2.95 0,-1.63 -2.62,-2.95 -5.85,-2.95 -3.23,0 -5.85,1.32 -5.85,2.95z"/>
  <path class="fil1" d="M449.95 370.69c0,1.63 -2.62,2.95 -5.85,2.95 -3.23,0 -5.85,-1.32 -5.85,-2.95 0,-1.63 2.62,-2.95 5.85,-2.95 3.23,0 5.85,1.32 5.85,2.95zm-0.31 15.73c8.83,0 15.98,-5.47 15.98,-12.21 0,-6.75 -7.15,-12.21 -15.98,-12.21 -8.83,0 -15.98,5.46 -15.98,12.21 0,6.74 7.15,12.21 15.98,12.21z"/>
  <path class="fil2" d="M408.83 378.97c0,-6.74 -7.16,-12.21 -15.98,-12.21 -8.83,0 -15.99,5.47 -15.99,12.21 0,6.75 7.16,12.22 15.99,12.22 8.82,0 15.98,-5.47 15.98,-12.22zm-21.83 -7.19c3.23,0 5.85,1.32 5.85,2.95 0,1.63 -2.62,2.95 -5.85,2.95 -3.23,0 -5.84,-1.32 -5.84,-2.95 0,-1.63 2.61,-2.95 5.84,-2.95z"/>
  <path class="fil2" d="M449.64 362c-8.83,0 -15.98,5.46 -15.98,12.21 0,6.74 7.15,12.21 15.98,12.21 8.83,0 15.98,-5.47 15.98,-12.21 0,-6.75 -7.15,-12.21 -15.98,-12.21zm0.31 8.69c0,1.63 -2.62,2.95 -5.85,2.95 -3.23,0 -5.85,-1.32 -5.85,-2.95 0,-1.63 2.62,-2.95 5.85,-2.95 3.23,0 5.85,1.32 5.85,2.95z"/>
  <path class="fil2" d="M478.04 401.03c-9.67,-2.12 -21.14,-2.48 -31.71,-3.72l-23.19 1.4c-4.31,0.26 -39.27,14.22 -43.07,17.21 -3.17,2.5 -5.9,5.94 -8.54,9.6 -2.51,3.48 -4.93,7.16 -7.55,10.41 0.66,8.77 -13.57,16.23 11.36,31.64 9.21,5.69 20.4,7.44 30.76,10.7 13.31,4.19 27.12,6.86 40.23,11.64 4.06,1.47 9.56,2.92 10.88,6.98 5.05,-8.85 8.94,-18.43 15.15,-26.53 6.05,-7.87 14.59,-13.59 21.3,-20.94 21.81,-23.89 0.51,-41.29 8.55,-40.04 -5.84,-2.1 -11.21,-4.53 -17.28,-6.48 -2.19,-0.7 -4.47,-1.33 -6.89,-1.87z"/>
  <ellipse class="fil3 str0" cx="334.77" cy="492.76" rx="3.79" ry="3.72"/>
  <ellipse class="fil3 str0" cx="358.91" cy="505.32" rx="3.79" ry="3.72"/>
  <ellipse class="fil3 str0" cx="327.68" cy="513.23" rx="3.79" ry="3.72"/>
  <ellipse class="fil3 str0" cx="352.29" cy="521.14" rx="3.79" ry="3.72"/>
  <path class="fil2" d="M334.77 496.48c2.1,0 3.79,-1.66 3.79,-3.72 0,-2.06 -1.69,-3.72 -3.79,-3.72 -2.09,0 -3.78,1.66 -3.78,3.72 0,2.06 1.69,3.72 3.78,3.72z"/>
  <path class="fil2" d="M358.91 501.6c-2.09,0 -3.78,1.67 -3.78,3.72 0,2.06 1.69,3.73 3.78,3.73 2.09,0 3.79,-1.67 3.79,-3.73 0,-2.05 -1.7,-3.72 -3.79,-3.72z"/>
  <path class="fil2" d="M356.07 521.14c0,-2.05 -1.69,-3.72 -3.78,-3.72 -2.1,0 -3.79,1.67 -3.79,3.72 0,2.06 1.69,3.73 3.79,3.73 2.09,0 3.78,-1.67 3.78,-3.73z"/>
  <path class="fil2" d="M331.46 513.23c0,-2.05 -1.69,-3.72 -3.78,-3.72 -2.1,0 -3.79,1.67 -3.79,3.72 0,2.06 1.69,3.73 3.79,3.73 2.09,0 3.78,-1.67 3.78,-3.73z"/>
  <ellipse class="fil3 str0" cx="537.81" cy="450.42" rx="3.79" ry="3.72"/>
  <ellipse class="fil3 str0" cx="561.95" cy="462.98" rx="3.79" ry="3.72"/>
  <ellipse class="fil3 str0" cx="530.71" cy="470.89" rx="3.79" ry="3.72"/>
  <ellipse class="fil3 str0" cx="555.32" cy="478.8" rx="3.79" ry="3.72"/>
  <path class="fil2" d="M537.81 454.14c2.09,0 3.79,-1.67 3.79,-3.72 0,-2.06 -1.7,-3.73 -3.79,-3.73 -2.09,0 -3.79,1.67 -3.79,3.73 0,2.05 1.7,3.72 3.79,3.72z"/>
  <path class="fil2" d="M561.95 459.26c-2.09,0 -3.79,1.66 -3.79,3.72 0,2.06 1.7,3.72 3.79,3.72 2.09,0 3.78,-1.66 3.78,-3.72 0,-2.06 -1.69,-3.72 -3.78,-3.72z"/>
  <path class="fil2" d="M559.11 478.8c0,-2.06 -1.7,-3.72 -3.79,-3.72 -2.09,0 -3.79,1.66 -3.79,3.72 0,2.06 1.7,3.72 3.79,3.72 2.09,0 3.79,-1.66 3.79,-3.72z"/>
  <path class="fil2" d="M534.5 470.89c0,-2.06 -1.7,-3.72 -3.79,-3.72 -2.09,0 -3.79,1.66 -3.79,3.72 0,2.06 1.7,3.72 3.79,3.72 2.09,0 3.79,-1.66 3.79,-3.72z"/>
  <path class="fil4" d="M522.05 554.58c11.1,-5.69 22.03,-12.14 31.24,-20.47 10.56,-9.54 20.93,-20.01 27.45,-32.57 12.14,-23.4 10.79,-46.45 -8.52,-65.61 -9.81,-9.73 -22.97,-16 -35.97,-20.94 -10.28,-3.9 -18.93,-3.26 -34.04,-5.61 -8.04,-1.25 13.26,16.15 -8.55,40.04 -6.71,7.35 -15.25,13.07 -21.3,20.94 -6.21,8.1 -10.1,17.68 -15.15,26.53 4.42,13.53 7.35,28.28 5.21,42.34 -0.08,0.51 -0.17,1.02 -0.28,1.53 5.83,3.43 11.31,7.7 16.96,11.57l25.55 9.86c6,-0.93 11.95,-4.81 17.4,-7.61zm8.66 -79.97c-2.09,0 -3.79,-1.66 -3.79,-3.72 0,-2.06 1.7,-3.72 3.79,-3.72 2.09,0 3.79,1.66 3.79,3.72 0,2.06 -1.7,3.72 -3.79,3.72zm20.82 4.19c0,-2.06 1.7,-3.72 3.79,-3.72 2.09,0 3.79,1.66 3.79,3.72 0,2.06 -1.7,3.72 -3.79,3.72 -2.09,0 -3.79,-1.66 -3.79,-3.72zm6.63 -15.82c0,-2.06 1.7,-3.72 3.79,-3.72 2.09,0 3.78,1.66 3.78,3.72 0,2.06 -1.69,3.72 -3.78,3.72 -2.09,0 -3.79,-1.66 -3.79,-3.72zm-16.56 -12.56c0,2.05 -1.7,3.72 -3.79,3.72 -2.09,0 -3.79,-1.67 -3.79,-3.72 0,-2.06 1.7,-3.73 3.79,-3.73 2.09,0 3.79,1.67 3.79,3.73z"/>
  <path class="fil4" d="M462.42 539.23c2.14,-14.06 -0.79,-28.81 -5.21,-42.34 -1.32,-4.06 -6.82,-5.51 -10.88,-6.98 -13.11,-4.78 -26.92,-7.45 -40.23,-11.64 -10.36,-3.26 -21.55,-5.01 -30.76,-10.7 -24.93,-15.41 -10.7,-22.87 -11.36,-31.64 -0.12,-1.61 -3.29,0.63 -4.73,1.4 -9.95,5.29 -20.71,9.57 -29.35,16.75 -9.9,8.23 -20.37,17.16 -25.55,28.85 -8.31,18.74 -7.8,39.63 4.73,61.42 5.94,10.33 19.23,14.77 30.29,19.54 14.77,6.36 30.47,10.94 46.38,13.49 12.46,2 25.49,2.45 37.86,0 8.58,-1.7 17,-6.01 23.19,-12.09 6.88,-6.77 13.4,-15.18 15.34,-24.53 0.11,-0.51 0.2,-1.02 0.28,-1.53zm-110.13 -21.81c2.09,0 3.78,1.67 3.78,3.72 0,2.06 -1.69,3.73 -3.78,3.73 -2.1,0 -3.79,-1.67 -3.79,-3.73 0,-2.05 1.69,-3.72 3.79,-3.72zm-24.61 -7.91c2.09,0 3.78,1.67 3.78,3.72 0,2.06 -1.69,3.73 -3.78,3.73 -2.1,0 -3.79,-1.67 -3.79,-3.73 0,-2.05 1.69,-3.72 3.79,-3.72zm35.02 -4.19c0,2.06 -1.7,3.73 -3.79,3.73 -2.09,0 -3.78,-1.67 -3.78,-3.73 0,-2.05 1.69,-3.72 3.78,-3.72 2.09,0 3.79,1.67 3.79,3.72zm-24.14 -12.56c0,2.06 -1.69,3.72 -3.79,3.72 -2.09,0 -3.78,-1.66 -3.78,-3.72 0,-2.06 1.69,-3.72 3.78,-3.72 2.1,0 3.79,1.66 3.79,3.72z"/>
  <path class="fil5" d="M504.65 562.19l-25.55 -9.86c6.17,4.24 12.54,8.01 19.76,9.7 1.93,0.45 3.86,0.46 5.79,0.16z"/>
  <ellipse class="fil3 str0" transform="matrix(0.0364698 -0.0159359 0.0162089 0.0358557 353.758 322.536)" rx="776.11" ry="185.21"/>
  <ellipse class="fil3 str0" transform="matrix(-0.0364698 -0.0159359 -0.0162089 0.0358557 453.498 313.342)" rx="776.11" ry="185.21"/>
  <path class="fil6" d="M356.76 329.18c15.63,-6.83 26.96,-15.34 25.3,-19.01 -1.66,-3.67 -15.67,-1.11 -31.3,5.72 -15.64,6.84 -26.96,15.35 -25.31,19.01 1.66,3.67 15.68,1.11 31.31,-5.72z"/>
  <path class="fil6" d="M425.19 300.97c-1.65,3.67 9.67,12.18 25.31,19.01 15.63,6.83 29.64,9.4 31.3,5.73 1.66,-3.67 -9.67,-12.18 -25.3,-19.01 -15.63,-6.83 -29.65,-9.39 -31.31,-5.73z"/>
  <path class="fil7" d="M356.76 329.18c15.63,-6.83 26.96,-15.34 25.3,-19.01 -1.66,-3.67 -15.67,-1.11 -31.3,5.72 -15.64,6.84 -26.96,15.35 -25.31,19.01 1.66,3.67 15.68,1.11 31.31,-5.72z"/>
  <path class="fil7" d="M425.19 300.97c-1.65,3.67 9.67,12.18 25.31,19.01 15.63,6.83 29.64,9.4 31.3,5.73 1.66,-3.67 -9.67,-12.18 -25.3,-19.01 -15.63,-6.83 -29.65,-9.39 -31.31,-5.73z"/>
  <path class="fil4" d="M227.78 448.77c23.98,-41.66 34.55,-81.43 63.89,-120.51 -1.58,0.46 -86.76,-49.01 -102.22,-55.84 -7.73,-3.41 -10.55,-6.59 -19.88,-9.31 -16.24,-4.73 -34.42,-10.77 -54.43,-10.7 -20.01,0.08 -60.37,5.01 -83.77,14.43 -13.56,5.46 -23.49,8.94 -24.61,23.32 -6.53,84.11 60.95,115.26 113.12,135.81 24.69,9.73 49.71,19.88 69.6,25.24 19.12,5.16 33.51,5.89 38.3,-2.44z"/>
  <path class="fil2" d="M503.98 298.05c62.19,26.95 87.55,74.33 108.57,84.18 14.12,6.62 69.25,-35.62 99.39,-61.42 10.26,-8.78 29.58,-47.59 32.66,-63.28 2.78,-14.21 9.02,-27.87 9.46,-42.34 0.51,-16.75 3.85,-34.18 -0.94,-50.26 -2.89,-9.66 -3.61,-15.51 -13.37,-18.61 -15.76,-5 -41.15,-8.27 -57.05,-3.72 -24.15,6.91 -46.01,20.36 -67.31,33.5 -14.61,9.02 -26.88,21.28 -39.75,32.57 -39.29,34.47 -74.7,70.78 -71.66,89.38z"/>
  <path class="fil8" d="M309.08 544.35c-12.53,-21.79 -13.04,-42.68 -4.73,-61.42 5.18,-11.69 15.65,-20.62 25.55,-28.85 8.64,-7.18 19.4,-11.46 29.35,-16.75 1.44,-0.77 4.61,-3.01 4.73,-1.4 2.62,-3.25 5.04,-6.93 7.55,-10.41 -7.69,-6.83 -19.73,-10.84 -23.06,-20.49 -3.88,-11.22 -0.15,-24.16 3.78,-35.36 2.64,-7.51 7.92,-15.06 15.15,-18.61 9.1,-4.48 20.73,-7.16 30.29,-3.73 13.38,4.81 20.2,12.65 23.46,21.7 -0.48,-3.35 -0.81,-6.6 -0.75,-9.6 0.31,-14.23 17.71,-18.28 32.19,-17.68 7.41,0.31 16.39,6.41 20.35,9.31 8.55,6.24 10.88,18.14 12.78,25.12 2.87,13.22 2.84,22.34 -0.79,26.72 6.07,1.95 11.44,4.38 17.28,6.48 15.11,2.35 23.76,1.71 34.04,5.61 13,4.94 26.16,11.21 35.97,20.94 19.31,19.16 20.66,42.21 8.52,65.61 -6.52,12.56 -16.89,23.03 -27.45,32.57 -9.21,8.33 -20.14,14.78 -31.24,20.47 -5.45,2.8 -11.4,6.68 -17.4,7.61l66.87 25.79c2.5,-1.39 4.97,-2.81 7.43,-4.27 11.26,-6.7 22.34,-13.19 32.18,-23.73 22.3,-23.88 39.56,-60.31 39.29,-93.06 -0.37,-42.39 -13.81,-56.31 -37.87,-84.69 -21.02,-9.85 -46.38,-57.23 -108.57,-84.18 0.05,0.31 -21.11,-7.14 -47.33,-10.5 -19.69,-2.53 -44.28,-1.49 -50.92,-1.64 -61.32,-1.33 -100.91,38.46 -114.06,42.35 -29.34,39.08 -39.91,78.85 -63.89,120.51 -4.79,8.33 -19.18,7.6 -38.3,2.44 0,0.25 0,0.49 0.01,0.74 0.12,14.13 -1.23,30.02 1.38,41.19 2.98,12.74 11.97,45.89 17.1,54.63 6.64,11.31 18.05,21.69 27.55,30.35 16.26,14.84 44.43,33.69 66.09,38.16 41.09,8.48 84.37,12.64 126.99,10.31l32.4 -81.23 18.1 6.97c-5.4,-3.7 -10.65,-7.76 -16.19,-11.11 -0.25,-0.16 -0.51,-0.31 -0.77,-0.46 -1.94,9.35 -8.46,17.76 -15.34,24.53 -6.19,6.08 -14.61,10.39 -23.19,12.09 -12.37,2.45 -25.4,2 -37.86,0 -15.91,-2.55 -31.61,-7.13 -46.38,-13.49 -11.06,-4.77 -24.35,-9.21 -30.29,-19.54zm47.68 -215.17c-15.63,6.83 -29.65,9.39 -31.31,5.72 -1.65,-3.66 9.67,-12.17 25.31,-19.01 15.63,-6.83 29.64,-9.39 31.3,-5.72 1.66,3.67 -9.67,12.18 -25.3,19.01zm93.74 -9.2c-15.64,-6.83 -26.96,-15.34 -25.31,-19.01 1.66,-3.66 15.68,-1.1 31.31,5.73 15.63,6.83 26.96,15.34 25.3,19.01 -1.66,3.67 -15.67,1.1 -31.3,-5.73z"/>
  <path class="fil8" d="M461 545.36l-15.83 39.69c10.04,3.89 20.1,7.11 30.26,5.04 13.95,-2.84 22.77,-16.16 33.1,-26.41l-3.88 -1.49c-1.93,0.3 -3.86,0.29 -5.79,-0.16 -7.22,-1.69 -13.59,-5.46 -19.76,-9.7l-18.1 -6.97z"/>
  <path class="fil8" d="M445.17 585.05c10.04,3.89 20.1,7.11 30.26,5.04 13.95,-2.84 22.77,-16.16 33.1,-26.41l-3.88 -1.49c-1.93,0.3 -3.86,0.29 -5.79,-0.16 -7.22,-1.69 -13.59,-5.46 -19.76,-9.7l-18.1 -6.97 -15.83 39.69z"/>
  <path class="fil2" d="M445.17 585.05c10.04,3.89 20.1,7.11 30.26,5.04 13.95,-2.84 22.77,-16.16 33.1,-26.41l-3.88 -1.49c-1.93,0.3 -3.86,0.29 -5.79,-0.16 -7.22,-1.69 -13.59,-5.46 -19.76,-9.7l-18.1 -6.97 -15.83 39.69z"/>
  <path class="fil2" d="M445.17 585.05l15.83 -39.69 18.1 6.97c-5.4,-3.7 -10.65,-7.76 -16.19,-11.11 -0.25,-0.16 -0.51,-0.31 -0.77,-0.46 -1.94,9.35 -8.46,17.76 -15.34,24.53 -6.19,6.08 -14.61,10.39 -23.19,12.09 7.2,1.77 14.38,4.89 21.56,7.67z"/>
  <path class="fil2" d="M513.63 559.05c-2.94,1.45 -5.95,2.67 -8.98,3.14l3.88 1.49c1.65,-1.64 3.35,-3.2 5.1,-4.63z"/>
  <path class="fil8" d="M428.6 626.59c50.09,-2.74 99.27,-14.45 142.92,-38.61l-62.99 -24.3c-10.33,10.25 -19.15,23.57 -33.1,26.41 -10.16,2.07 -20.22,-1.15 -30.26,-5.04l-16.57 41.54z"/>
  <path class="fil9" d="M376.86 378.97c0,-6.73 7.16,-12.21 15.99,-12.21 8.83,0 15.98,5.48 15.98,12.21 0,6.75 -7.15,12.21 -15.98,12.21 -8.83,0 -15.99,-5.46 -15.99,-12.21zm3.21 36.95c3.79,-3 38.76,-16.96 43.07,-17.22l23.19 -1.39c10.57,1.24 22.04,1.6 31.71,3.72 2.42,0.54 4.7,1.17 6.89,1.88 3.63,-4.38 3.66,-13.51 0.79,-26.73 -1.9,-6.97 -4.23,-18.89 -12.79,-25.12 -3.95,-2.9 -12.93,-9.01 -20.34,-9.31 -14.48,-0.59 -31.88,3.46 -32.18,17.68 -0.07,3 0.26,6.26 0.74,9.6 -3.26,-9.05 -10.08,-16.89 -23.46,-21.7 -9.56,-3.42 -21.19,-0.75 -30.29,3.73 -7.24,3.55 -12.51,11.1 -15.15,18.6 -3.92,11.22 -7.65,24.15 -3.78,35.37 3.32,9.64 15.37,13.66 23.06,20.48 2.64,-3.65 5.38,-7.09 8.54,-9.59zm53.58 -41.71c0,-6.74 7.16,-12.21 15.99,-12.21 8.82,0 15.98,5.47 15.98,12.21 0,6.74 -7.16,12.21 -15.98,12.21 -8.83,0 -15.99,-5.47 -15.99,-12.21z"/>
 </g>
</svg>
